<?xml version="1.0" encoding="UTF-8"?>
<!-- Generator: visioncortex VTracer 0.6.4 -->
<svg version="1.1" xmlns="http://www.w3.org/2000/svg" width="1634" height="528">
<path d="M0 0 C0.90878906 0.69416016 0.90878906 0.69416016 1.8359375 1.40234375 C1.8359375 2.06234375 1.8359375 2.72234375 1.8359375 3.40234375 C2.8259375 3.73234375 3.8159375 4.06234375 4.8359375 4.40234375 C8.69120189 9.2246477 9.53524781 14.70716099 9.27734375 20.73046875 C8.09269166 27.90128319 3.19191848 32.36792475 -2.1015625 36.95703125 C-4.1640625 38.40234375 -4.1640625 38.40234375 -9.1640625 40.40234375 C-9.4940625 52.28234375 -9.8240625 64.16234375 -10.1640625 76.40234375 C-5.41773438 76.3559375 -0.67140625 76.30953125 4.21875 76.26171875 C7.25392858 76.24124279 10.28902012 76.22198458 13.32421875 76.20703125 C18.12534618 76.18326437 22.92616402 76.15537424 27.72705078 76.10058594 C31.60449453 76.05662094 35.48160556 76.03310191 39.35927963 76.02283478 C40.82703757 76.01553299 42.29478057 76.00127907 43.76239395 75.97942352 C57.31498043 75.78591654 69.27873011 77.95224312 80.8359375 85.40234375 C81.9084375 86.06234375 82.9809375 86.72234375 84.0859375 87.40234375 C95.44926918 95.66658497 103.98091158 109.72742365 106.38154602 123.542099 C106.88340619 127.80561007 106.98364688 131.94941045 106.98120117 136.23657227 C106.98623909 137.52110542 106.98623909 137.52110542 106.99137878 138.83158875 C107.00083596 141.64815749 107.00282961 144.46466639 107.00390625 147.28125 C107.00712371 149.25552901 107.01048814 151.22980778 107.01399231 153.2040863 C107.01997141 157.34057161 107.02183359 161.47703607 107.02124023 165.61352539 C107.02113897 170.87959327 107.03475973 176.14552523 107.05201244 181.41156101 C107.06320783 185.49113054 107.0651571 189.57066808 107.06463051 193.65025139 C107.0658005 195.58965458 107.0701663 197.52905886 107.07796288 199.46844673 C107.17563981 226.28671949 102.41816178 251.73860759 83.8359375 272.40234375 C83.1759375 272.40234375 82.5159375 272.40234375 81.8359375 272.40234375 C81.59359375 272.97597656 81.35125 273.54960937 81.1015625 274.140625 C73.39825955 287.90671268 52.47526935 297.10197223 38.22937012 301.52111816 C26.06243068 304.82613806 14.22077915 304.98864482 1.6796875 304.93359375 C-0.51973644 304.93629702 -2.7191592 304.94018632 -4.9185791 304.94519043 C-9.50068681 304.95104622 -14.08248 304.94265006 -18.66455078 304.92382812 C-24.49073587 304.90104138 -30.31618347 304.91418566 -36.14234161 304.93811798 C-40.67585649 304.95268265 -45.20920111 304.94792145 -49.74272156 304.93760681 C-51.88897289 304.93496889 -54.0352405 304.9381038 -56.18147278 304.94752502 C-86.17431972 305.05034209 -110.54475528 296.72508983 -132.1640625 275.40234375 C-132.96972656 274.60957031 -133.77539062 273.81679688 -134.60546875 273 C-149.40381694 257.53250911 -158.2560534 236.1825046 -158.35693359 214.80126953 C-158.36511108 213.83952316 -158.37328857 212.87777679 -158.38171387 211.8868866 C-158.40650103 208.70714933 -158.42307227 205.52745671 -158.4375 202.34765625 C-158.44282368 201.25667507 -158.44814735 200.16569389 -158.45363235 199.04165268 C-158.48034268 193.26019749 -158.49971916 187.47876367 -158.51416016 181.69726562 C-158.52746183 176.93502435 -158.55524839 172.17321535 -158.59619141 167.41113281 C-158.6457905 161.64109073 -158.67031516 155.87143859 -158.67738724 150.10119247 C-158.6840569 147.91417049 -158.69916544 145.72715573 -158.72327805 143.5402565 C-158.92997919 123.64901395 -156.10874071 107.70884171 -141.9140625 92.65234375 C-131.20129978 82.502455 -118.19815373 76.26127865 -103.35424805 76.28881836 C-102.69027512 76.28867233 -102.02630219 76.28852631 -101.34220886 76.28837585 C-99.16169901 76.28906892 -96.98127606 76.29683276 -94.80078125 76.3046875 C-93.2833511 76.30655383 -91.76592035 76.30797672 -90.24848938 76.30897522 C-86.26515015 76.31278343 -82.2818477 76.32259916 -78.29852295 76.3336792 C-74.22961932 76.34392986 -70.16070971 76.34848066 -66.09179688 76.35351562 C-58.11586859 76.36422301 -50.13997013 76.38127897 -42.1640625 76.40234375 C-42.05946246 71.38383226 -42.02082479 66.3706342 -42.04199219 61.35107422 C-42.04005116 59.64588158 -42.02041484 57.94061028 -41.98242188 56.23583984 C-41.38973607 46.42854246 -41.38973607 46.42854246 -45.36035156 38.02490234 C-47.91290403 36.5277946 -50.42209724 35.49386423 -53.1640625 34.40234375 C-57.09994309 30.89395581 -59.87573559 26.69681895 -60.53515625 21.44921875 C-60.71081779 12.72813981 -59.47239296 8.09339392 -53.625 1.7265625 C-38.87398193 -12.36031021 -16.03826931 -9.69698437 0 0 Z M-87.1640625 144.40234375 C-88.85591947 149.47791465 -88.42864815 154.80108779 -88.45922852 160.11645508 C-88.47074099 161.51011311 -88.49118179 162.90372729 -88.52075195 164.29711914 C-88.56362063 166.31817364 -88.57962229 168.33792119 -88.58984375 170.359375 C-88.60442627 171.5656958 -88.61900879 172.7720166 -88.6340332 174.01489258 C-87.91324943 179.21015224 -85.42678649 182.26281234 -81.6015625 185.71484375 C-77.41357121 188.61422234 -73.14228501 189.21295697 -68.1640625 188.40234375 C-65.23920603 187.07150923 -62.5841524 185.52635882 -60.1640625 183.40234375 C-60.1640625 182.74234375 -60.1640625 182.08234375 -60.1640625 181.40234375 C-59.5040625 181.40234375 -58.8440625 181.40234375 -58.1640625 181.40234375 C-55.78483087 175.02173105 -55.79659405 169.26808084 -55.7890625 162.52734375 C-55.75232422 160.80837891 -55.75232422 160.80837891 -55.71484375 159.0546875 C-55.69055706 152.01964159 -56.29935821 147.34215052 -60.1640625 141.40234375 C-69.84923861 133.6937342 -79.1583432 135.25295026 -87.1640625 144.40234375 Z M6.8984375 143.52734375 C3.67522755 149.21536131 4.61140412 155.87683788 4.5859375 162.21484375 C4.5653125 163.48650391 4.5446875 164.75816406 4.5234375 166.06835938 C4.51828125 167.29876953 4.513125 168.52917969 4.5078125 169.796875 C4.4984668 170.91940674 4.48912109 172.04193848 4.47949219 173.19848633 C4.95659581 177.48686359 6.41751485 180.84725017 9.3359375 184.046875 C13.7540182 187.48699513 16.96979281 188.82969947 22.64453125 188.74609375 C27.93465295 187.91627074 31.71452488 184.84906066 34.91894531 180.71508789 C37.06173107 177.01215106 37.35040485 174.9554688 37.3671875 170.71875 C37.37234375 169.46126953 37.3775 168.20378906 37.3828125 166.90820312 C37.36734375 165.60689453 37.351875 164.30558594 37.3359375 162.96484375 C37.35140625 161.66740234 37.366875 160.36996094 37.3828125 159.03320312 C37.35403792 152.00860922 37.27897507 146.99552934 32.8359375 141.40234375 C29.4538742 138.16948912 25.53719163 136.11975793 20.8359375 135.77734375 C15.16556282 136.15760556 10.63478704 139.42941199 6.8984375 143.52734375 Z M-70.1640625 229.40234375 C-70.1640625 234.35234375 -70.1640625 239.30234375 -70.1640625 244.40234375 C-39.49431583 255.59265672 -13.99075218 255.0197614 16.8359375 245.40234375 C17.1659375 245.07234375 17.4959375 244.74234375 17.8359375 244.40234375 C17.8359375 239.45234375 17.8359375 234.50234375 17.8359375 229.40234375 C-11.2040625 229.40234375 -40.2440625 229.40234375 -70.1640625 229.40234375 Z " fill="#EF5136" transform="translate(287.1640625,94.59765625)"/>
<path d="M0 0 C2.22912011 -0.00217569 4.45773526 -0.02035605 6.68676758 -0.03930664 C53.85876611 -0.22699537 99.6153371 19.9241129 133.5637207 52.18530273 C134.0690332 52.66338379 134.5743457 53.14146484 135.0949707 53.6340332 C143.09812142 61.25482185 150.15418867 69.18600836 156.5637207 78.18530273 C156.9771875 78.75442383 157.3906543 79.32354492 157.81665039 79.90991211 C165.13593478 90.04776797 170.48930649 100.7852319 175.5637207 112.18530273 C176.06983887 113.28950562 176.06983887 113.28950562 176.58618164 114.41601562 C186.21805709 135.58347294 191.87706525 159.04426006 191.6262207 182.37280273 C191.61719727 183.48010742 191.60817383 184.58741211 191.59887695 185.72827148 C191.58147461 186.94450195 191.58147461 186.94450195 191.5637207 188.18530273 C192.21727539 188.26522461 192.87083008 188.34514648 193.54418945 188.42749023 C206.04059622 191.56371651 218.80671487 200.0480625 225.5559082 210.99780273 C228.68681416 217.7935676 228.8836985 224.10888188 228.8996582 231.48999023 C228.906315 232.56854279 228.9129718 233.64709534 228.91983032 234.7583313 C228.92992409 237.03263654 228.93464836 239.30697121 228.93432617 241.58129883 C228.9386979 245.04224903 228.9750501 248.50192162 229.01293945 251.96264648 C229.01880873 254.18009007 229.02277738 256.39753967 229.0246582 258.61499023 C229.04621475 260.15290726 229.04621475 260.15290726 229.06820679 261.72189331 C229.01564155 270.07460409 226.81573277 276.77308367 221.6887207 283.43530273 C221.23754883 284.03858398 220.78637695 284.64186523 220.3215332 285.26342773 C215.64661286 290.37467398 210.62107791 293.43073479 204.4387207 296.37280273 C203.73618164 296.71504883 203.03364258 297.05729492 202.30981445 297.40991211 C201.00550183 298.04480909 199.69955545 298.67637058 198.39135742 299.30322266 C196.43926021 300.24537163 194.50160938 301.21431993 192.5637207 302.18530273 C192.55159042 303.02189926 192.55159042 303.02189926 192.53921509 303.87539673 C192.45227828 309.74941484 192.35275176 315.62312937 192.24633789 321.49682617 C192.20836319 323.68069304 192.17345924 325.86461577 192.1418457 328.04858398 C191.72225132 356.6859004 187.39607538 385.24165936 168.5637207 408.18530273 C167.9037207 408.18530273 167.2437207 408.18530273 166.5637207 408.18530273 C166.31106445 408.75120117 166.0584082 409.31709961 165.7980957 409.90014648 C155.66291725 428.66305597 130.11018759 442.00797818 110.5637207 448.18530273 C95.52881764 452.38026509 80.7491591 452.73656756 65.23950195 452.61108398 C62.87151873 452.6061474 60.50353156 452.6028568 58.13554382 452.60112 C53.22174211 452.59354956 48.30823901 452.57318556 43.39453125 452.54199219 C37.08393177 452.50200484 30.7735234 452.48430921 24.46281147 452.47468281 C18.43001572 452.46475257 12.39726673 452.44487847 6.36450195 452.42358398 C5.21267237 452.42018824 4.06084278 452.41679249 2.87410927 452.41329384 C-0.35660882 452.40178882 -3.58720241 452.38328953 -6.81787109 452.36230469 C-7.78338394 452.35961578 -8.74889679 452.35692688 -9.7436676 452.35415649 C-10.61645355 452.34700119 -11.4892395 452.33984589 -12.38847351 452.33247375 C-13.15063014 452.32820027 -13.91278677 452.32392679 -14.69803905 452.31952381 C-16.4362793 452.18530273 -16.4362793 452.18530273 -17.4362793 451.18530273 C-17.53009232 449.34412244 -17.55371884 447.49932632 -17.54980469 445.65576172 C-17.54972916 444.47461288 -17.54965363 443.29346405 -17.54957581 442.07652283 C-17.54441452 440.79113113 -17.53925323 439.50573944 -17.53393555 438.18139648 C-17.53181313 436.21916893 -17.53181313 436.21916893 -17.52964783 434.21730042 C-17.52582339 430.73367414 -17.51599376 427.25008934 -17.50494385 423.76647949 C-17.49472812 420.21403566 -17.49014986 416.66158514 -17.48510742 413.10913086 C-17.47437142 406.13450441 -17.45729589 399.15990556 -17.4362793 392.18530273 C-11.75797852 392.16065569 -6.0797086 392.14246811 -0.40136719 392.13037109 C1.53190656 392.12533017 3.46517647 392.11849755 5.3984375 392.10986328 C8.17098942 392.09778709 10.94349111 392.09207217 13.71606445 392.08764648 C15.02074928 392.07990456 15.02074928 392.07990456 16.35179138 392.07200623 C18.42277884 392.07181088 20.49366395 392.12322106 22.5637207 392.18530273 C23.5637207 393.18530273 23.5637207 393.18530273 23.67724609 395.77734375 C23.67200928 396.90325928 23.66677246 398.0291748 23.66137695 399.18920898 C23.6581543 400.40415039 23.65493164 401.6190918 23.65161133 402.87084961 C23.64323242 404.15024414 23.63485352 405.42963867 23.6262207 406.74780273 C23.62170898 408.03106445 23.61719727 409.31432617 23.61254883 410.63647461 C23.60071616 413.81946296 23.58423139 417.00236036 23.5637207 420.18530273 C31.11063613 420.12348366 38.65726091 420.04595789 46.20381165 419.94958782 C49.70982468 419.90528351 53.21573209 419.86594602 56.72192383 419.83886719 C81.48391105 419.64166756 103.56324649 418.58669038 124.6027832 404.17358398 C126.89581294 402.63380544 129.06021245 401.32714674 131.5637207 400.18530273 C131.5637207 399.52530273 131.5637207 398.86530273 131.5637207 398.18530273 C133.0796582 396.94780273 133.0796582 396.94780273 134.6262207 395.68530273 C147.61131021 384.90374357 156.45912278 364.98781945 158.10151672 348.40292358 C158.72599128 341.19499902 158.71184991 333.99552695 158.70898438 326.76586914 C158.71198315 325.24168822 158.71538731 323.71750805 158.71916199 322.19332886 C158.72793751 318.08112701 158.73033749 313.96894602 158.73097777 309.85673571 C158.73169246 307.2760233 158.73383473 304.69531606 158.73647499 302.11460495 C158.74571024 293.07778339 158.74981255 284.04097651 158.74902344 275.00415039 C158.74842458 266.63655517 158.7589434 258.26902482 158.7747671 249.90144598 C158.78793681 242.67462575 158.79320335 235.44782646 158.79256803 228.22099435 C158.7923156 223.92409693 158.79502249 219.62725712 158.80574608 215.33037186 C159.38938681 173.82988334 159.38938681 173.82988334 148.5637207 134.18530273 C148.02583953 132.84628529 147.49383885 131.50489839 146.96606445 130.16186523 C144.05248724 122.79299367 141.12331762 115.80608418 136.7277832 109.16577148 C135.55021144 107.16231885 135.00253036 105.45588757 134.5637207 103.18530273 C133.9037207 103.18530273 133.2437207 103.18530273 132.5637207 103.18530273 C129.5637207 98.80068735 129.5637207 98.80068735 129.5637207 96.18530273 C128.9037207 96.18530273 128.2437207 96.18530273 127.5637207 96.18530273 C127.4605957 95.54592773 127.3574707 94.90655273 127.2512207 94.24780273 C126.9109082 93.22686523 126.9109082 93.22686523 126.5637207 92.18530273 C125.5737207 91.85530273 124.5837207 91.52530273 123.5637207 91.18530273 C121.87231445 89.25170898 121.87231445 89.25170898 120.0012207 86.74780273 C95.81306933 55.89914592 57.6791312 39.12044151 19.6730957 33.77905273 C5.93825989 32.2623224 -7.8379218 32.89505305 -21.4362793 35.18530273 C-22.40645996 35.33805664 -22.40645996 35.33805664 -23.39624023 35.49389648 C-54.23892578 40.37092436 -81.8409752 54.76288465 -104.4362793 76.18530273 C-105.87293945 77.5252832 -105.87293945 77.5252832 -107.33862305 78.89233398 C-129.14043489 99.63563417 -142.51241258 127.16067013 -149.4362793 156.18530273 C-149.68111746 157.17568417 -149.92595562 158.1660656 -150.17821312 159.18645859 C-152.11434483 167.49338338 -152.87462847 175.25535158 -152.8527832 183.76831055 C-152.86136856 185.04486008 -152.86995392 186.32140961 -152.87879944 187.63664246 C-152.90181701 191.08835471 -152.90725359 194.53988638 -152.90945864 197.99166584 C-152.91517597 201.61956451 -152.93848062 205.24735021 -152.96005249 208.87518311 C-152.99835147 215.72530842 -153.02271652 222.57540075 -153.04117715 229.42560554 C-153.07478304 241.72487363 -153.13231271 254.02404374 -153.19516885 266.32319331 C-153.21665196 270.63622154 -153.23192451 274.94921524 -153.24200845 279.26228476 C-153.24732782 281.29167309 -153.25479401 283.32104025 -153.26316833 285.35041809 C-153.27318809 287.82644924 -153.27956469 290.30249871 -153.28172302 292.77854919 C-153.28717636 293.86332047 -153.2926297 294.94809174 -153.29824829 296.06573486 C-153.30080439 297.01174686 -153.30336048 297.95775887 -153.30599403 298.9324379 C-153.4362793 301.18530273 -153.4362793 301.18530273 -154.4362793 303.18530273 C-186.48523337 304.8231854 -186.48523337 304.8231854 -199.7565918 296.2668457 C-201.35812018 295.23562902 -203.02183678 294.30295524 -204.6862793 293.37670898 C-214.21122471 287.89226568 -219.32664652 280.67580297 -222.4362793 270.18530273 C-222.95686923 266.22246668 -222.97554868 262.32637308 -222.93237305 258.33374023 C-222.93382828 257.23486481 -222.93528351 256.13598938 -222.93678284 255.0038147 C-222.93513274 252.69611949 -222.92367218 250.38841224 -222.90283203 248.08081055 C-222.87380222 244.56307993 -222.88225841 241.04685257 -222.89526367 237.52905273 C-222.88902727 235.2764413 -222.88063711 233.02383458 -222.86987305 230.77124023 C-222.87280869 229.72833832 -222.87574432 228.6854364 -222.87876892 227.6109314 C-222.7437778 217.09427099 -219.56925055 209.94168408 -212.4362793 202.18530273 C-206.40694453 196.33910197 -193.94830516 188.18530273 -185.4362793 188.18530273 C-185.52329102 186.50694336 -185.52329102 186.50694336 -185.61206055 184.79467773 C-185.98102567 173.99614566 -184.98969954 163.8215414 -183.0612793 153.18530273 C-182.83996338 151.96294922 -182.61864746 150.7405957 -182.390625 149.48120117 C-180.62714532 140.2476863 -180.62714532 140.2476863 -178.4362793 136.18530273 C-178.12391313 134.86108378 -177.85486312 133.5260968 -177.6237793 132.18530273 C-176.34552862 126.17459725 -173.94762303 120.77383728 -171.4362793 115.18530273 C-171.14446777 114.52933105 -170.85265625 113.87335938 -170.55200195 113.19750977 C-165.14425167 101.10381367 -158.78545774 90.20907041 -151.4362793 79.18530273 C-150.7350293 78.07155273 -150.0337793 76.95780273 -149.3112793 75.81030273 C-148.6925293 74.94405273 -148.0737793 74.07780273 -147.4362793 73.18530273 C-146.7762793 73.18530273 -146.1162793 73.18530273 -145.4362793 73.18530273 C-145.17459961 72.61682617 -144.91291992 72.04834961 -144.64331055 71.46264648 C-141.42165408 65.3842461 -136.57913413 59.74040273 -131.4362793 55.18530273 C-130.7762793 55.18530273 -130.1162793 55.18530273 -129.4362793 55.18530273 C-129.1062793 54.19530273 -128.7762793 53.20530273 -128.4362793 52.18530273 C-124.02915514 47.51820777 -118.61602089 43.69148132 -113.5612793 39.74780273 C-112.98990234 39.29848389 -112.41852539 38.84916504 -111.82983398 38.38623047 C-107.67278498 35.18530273 -107.67278498 35.18530273 -105.4362793 35.18530273 C-105.4362793 34.52530273 -105.4362793 33.86530273 -105.4362793 33.18530273 C-103.70239258 31.8918457 -103.70239258 31.8918457 -101.2565918 30.42749023 C-100.35593994 29.88793701 -99.45528809 29.34838379 -98.52734375 28.79248047 C-97.54854248 28.22086182 -96.56974121 27.64924316 -95.5612793 27.06030273 C-94.06890747 26.18450562 -94.06890747 26.18450562 -92.54638672 25.29101562 C-78.10686169 16.95639871 -62.71770106 9.98430115 -46.4362793 6.18530273 C-44.83139648 5.71157227 -44.83139648 5.71157227 -43.1940918 5.22827148 C-39.34333933 4.15950755 -35.48789121 3.34331696 -31.5612793 2.62280273 C-30.90514648 2.49711914 -30.24901367 2.37143555 -29.57299805 2.24194336 C-19.70731481 0.40534931 -10.01797302 -0.00109045 0 0 Z " fill="#EF5136" transform="translate(258.436279296875,30.814697265625)"/>
<path d="M0 0 C1.05509766 -0.020625 2.11019531 -0.04125 3.19726562 -0.0625 C9.6010674 -0.09441926 14.35295881 0.57554204 20.1875 3.25 C20.1875 3.91 20.1875 4.57 20.1875 5.25 C22.6625 5.745 22.6625 5.745 25.1875 6.25 C25.1875 6.91 25.1875 7.57 25.1875 8.25 C25.8475 8.25 26.5075 8.25 27.1875 8.25 C29.22919485 11.15548882 30.1875 12.65142046 30.1875 16.25 C30.8475 16.25 31.5075 16.25 32.1875 16.25 C33.14369733 20.24795892 33.2914592 23.95803922 33.25 28.0625 C33.24097656 29.22394531 33.23195313 30.38539063 33.22265625 31.58203125 C33.21105469 32.46246094 33.19945312 33.34289062 33.1875 34.25 C33.8475 34.25 34.5075 34.25 35.1875 34.25 C35.24808594 34.87648437 35.30867187 35.50296875 35.37109375 36.1484375 C35.45488281 36.96570313 35.53867187 37.78296875 35.625 38.625 C35.70621094 39.43710938 35.78742188 40.24921875 35.87109375 41.0859375 C36.07840114 43.29272805 36.07840114 43.29272805 37.1875 45.25 C37.39522336 46.81802284 37.55467297 48.39261498 37.6875 49.96875 C37.77 50.90074219 37.8525 51.83273438 37.9375 52.79296875 C38.10416667 54.76432292 38.27083333 56.73567708 38.4375 58.70703125 C38.52 59.63902344 38.6025 60.57101563 38.6875 61.53125 C38.79578125 62.81612305 38.79578125 62.81612305 38.90625 64.12695312 C39.07681774 66.3002001 39.07681774 66.3002001 40.1875 68.25 C40.37028556 70.43472265 40.50927652 72.62320064 40.625 74.8125 C40.94149818 79.74082882 41.50497737 84.30529955 42.71484375 89.08203125 C43.44241078 92.41921889 43.6806041 95.78252079 43.94140625 99.18359375 C44.07646254 101.30984447 44.07646254 101.30984447 45.1875 103.25 C45.57977838 105.95872518 45.93319498 108.65751693 46.25 111.375 C46.38631836 112.50615234 46.38631836 112.50615234 46.52539062 113.66015625 C46.74940852 115.52304188 46.96888573 117.38647252 47.1875 119.25 C47.8475 119.25 48.5075 119.25 49.1875 119.25 C49.125625 118.3425 49.06375 117.435 49 116.5 C49 111.98635158 50.16680601 107.87844405 51.3203125 103.5390625 C52.24284029 100.04010574 53.0680988 96.52731096 53.875 93 C54.12636719 91.90171875 54.37773438 90.8034375 54.63671875 89.671875 C54.81847656 88.87265625 55.00023437 88.0734375 55.1875 87.25 C55.8475 87.25 56.5075 87.25 57.1875 87.25 C57.14625 86.198125 57.105 85.14625 57.0625 84.0625 C57.18373603 80.36480117 57.84194277 78.59381013 59.1875 75.25 C59.52630715 73.44571748 59.81524497 71.63159061 60.0625 69.8125 C61.15860783 62.76609254 63.1364709 56.0680694 65.1875 49.25 C66.47835352 44.94082723 67.51887099 40.76007688 68.1875 36.3125 C70.35296022 23.01990572 70.35296022 23.01990572 72.90234375 20.66796875 C75.48886219 19.0630009 77.99410202 18.10196674 80.875 17.125 C84.30451256 16.15411082 84.30451256 16.15411082 87.1875 14.25 C93.32501345 13.25985195 99.35399837 13.06699891 105.5625 13.0625 C106.88507813 13.04413086 106.88507813 13.04413086 108.234375 13.02539062 C117.84324594 13.00425674 125.77001386 14.57361881 134.1875 19.25 C134.1875 19.91 134.1875 20.57 134.1875 21.25 C134.765 21.270625 135.3425 21.29125 135.9375 21.3125 C138.94972321 22.567593 139.95005532 24.57652082 141.4375 27.39453125 C142.39527234 29.76402012 142.4935646 31.72496708 142.1875 34.25 C142.8475 34.25 143.5075 34.25 144.1875 34.25 C145.47336034 38.38312252 146.41687069 42.41492149 147.125 46.6875 C147.83499258 50.79092171 148.89526496 54.37371374 150.46484375 58.21484375 C151.58950639 61.38213691 152.11613985 64.63708188 152.71484375 67.9375 C153.16510336 70.42221197 153.16510336 70.42221197 154.3125 73.375 C155.45949346 77.14369279 155.32301745 80.31999382 155.1875 84.25 C155.8475 84.25 156.5075 84.25 157.1875 84.25 C157.45304688 85.39597656 157.71859375 86.54195313 157.9921875 87.72265625 C158.34886742 89.25262536 158.70564337 90.78257209 159.0625 92.3125 C159.23652344 93.06466797 159.41054688 93.81683594 159.58984375 94.59179688 C160.6639738 99.18668653 161.87400915 103.71633803 163.1875 108.25 C163.73913821 110.39329157 164.28141582 112.53902308 164.8125 114.6875 C165.07289063 115.73808594 165.33328125 116.78867187 165.6015625 117.87109375 C165.79492188 118.65613281 165.98828125 119.44117188 166.1875 120.25 C167.79704507 113.67098451 168.66716011 107.30797561 169.1875 100.5625 C171.23547754 76.20202246 171.23547754 76.20202246 173.1875 74.25 C173.40396947 72.35006702 173.5589389 70.44305467 173.6875 68.53515625 C173.77 67.37435547 173.8525 66.21355469 173.9375 65.01757812 C174.02 63.79490234 174.1025 62.57222656 174.1875 61.3125 C174.35030654 58.90728768 174.51678619 56.50232027 174.6875 54.09765625 C174.7596875 53.02523682 174.831875 51.95281738 174.90625 50.84790039 C175.1875 48.25 175.1875 48.25 176.1875 46.25 C176.38590448 44.51875205 176.53241536 42.78141661 176.65234375 41.04296875 C176.7292041 39.98650146 176.80606445 38.93003418 176.88525391 37.84155273 C176.96437012 36.71821533 177.04348633 35.59487793 177.125 34.4375 C177.78128958 25.62402033 178.56254156 16.94525631 180.1875 8.25 C180.8475 8.25 181.5075 8.25 182.1875 8.25 C182.1875 7.59 182.1875 6.93 182.1875 6.25 C184.1675 5.92 186.1475 5.59 188.1875 5.25 C188.1875 4.59 188.1875 3.93 188.1875 3.25 C189.8375 3.25 191.4875 3.25 193.1875 3.25 C193.1875 2.59 193.1875 1.93 193.1875 1.25 C199.10757201 -0.10339179 204.9534906 0.02682866 211 0 C212.15048828 -0.020625 213.30097656 -0.04125 214.48632812 -0.0625 C221.13007292 -0.09295843 226.14872369 0.42744773 232.1875 3.25 C232.1875 3.91 232.1875 4.57 232.1875 5.25 C233.8375 5.58 235.4875 5.91 237.1875 6.25 C237.1875 6.91 237.1875 7.57 237.1875 8.25 C237.8475 8.25 238.5075 8.25 239.1875 8.25 C239.5175 9.9 239.8475 11.55 240.1875 13.25 C240.8475 13.25 241.5075 13.25 242.1875 13.25 C243.38016912 20.45051729 243.13348846 27.41309904 242.8125 34.6875 C242.74675781 36.4809082 242.74675781 36.4809082 242.6796875 38.31054688 C242.31916401 47.11833599 242.31916401 47.11833599 241.1875 48.25 C240.86010345 50.75011909 240.57512124 53.24303339 240.3125 55.75 C239.70781274 61.09316191 238.84115935 65.80371003 236.91015625 70.83984375 C235.5708949 75.30646135 235.22354537 79.97964492 234.71484375 84.6015625 C234.18014389 88.3008934 233.26793201 91.67563845 232.1875 95.25 C231.39681689 98.42029878 230.63197462 101.59587282 229.87109375 104.7734375 C229.1875 107.25 229.1875 107.25 228.1875 108.25 C227.83646799 110.28539568 227.53198032 112.32889489 227.25 114.375 C226.54370212 119.15809079 225.61698555 123.62519382 224.1875 128.25 C223.43044041 131.22503957 222.69835846 134.20562197 221.96875 137.1875 C221.10783513 140.56228628 220.14574173 143.90161921 219.1875 147.25 C218.53835821 149.72830244 217.89258349 152.20748901 217.25 154.6875 C215.84734998 160.02030886 214.21997718 165.12462276 212.1875 170.25 C211.15786964 173.24036186 210.1715847 176.24439191 209.1875 179.25 C208.1875 182.25 208.1875 182.25 206.03515625 183.56640625 C200.41794451 186.07957672 195.17542726 187.93013766 189.0859375 188.890625 C187.1836171 189.06613354 187.1836171 189.06613354 186.1875 190.25 C171.2886689 191.98902873 154.26563765 192.93065203 140.1875 187.25 C140.1875 186.59 140.1875 185.93 140.1875 185.25 C139.1975 185.25 138.2075 185.25 137.1875 185.25 C137.1875 184.59 137.1875 183.93 137.1875 183.25 C136.1975 182.92 135.2075 182.59 134.1875 182.25 C134.1875 181.59 134.1875 180.93 134.1875 180.25 C133.5275 180.25 132.8675 180.25 132.1875 180.25 C127.56914152 174.02525596 126.03815006 165.77395771 123.87109375 158.453125 C123.19729445 156.17835385 123.19729445 156.17835385 122.1875 153.75 C119.59530616 147.26951541 117.73017582 141.26230412 118.1875 134.25 C117.5275 134.25 116.8675 134.25 116.1875 134.25 C109.64107143 113.26428571 109.64107143 113.26428571 110.1875 105.25 C109.5275 105.25 108.8675 105.25 108.1875 105.25 C107.5275 103.27 106.8675 101.29 106.1875 99.25 C104.84037841 100.39565943 104.84037841 100.39565943 104.75 103.4375 C104.22618684 106.98778922 103.35716457 109.87096901 102.1875 113.25 C101.40486108 116.02289811 100.65609643 118.80400724 99.90625 121.5859375 C98.80979272 125.64998026 97.66124039 129.69622971 96.43359375 133.72265625 C96.16675781 134.59792969 95.89992188 135.47320312 95.625 136.375 C95.37621094 137.18195313 95.12742187 137.98890625 94.87109375 138.8203125 C94.17865111 141.28145149 93.65688799 143.73765667 93.1875 146.25 C92.5275 146.25 91.8675 146.25 91.1875 146.25 C91.15011719 146.89066406 91.11273437 147.53132812 91.07421875 148.19140625 C90.64406763 153.85084555 89.55481959 158.0418969 87.1875 163.25 C86.4022597 166.22816749 85.77031285 169.22622978 85.1875 172.25 C84.5275 172.25 83.8675 172.25 83.1875 172.25 C83.27 173.3225 83.3525 174.395 83.4375 175.5 C83.1875 179.25 83.1875 179.25 81.625 181.4375 C72.58012003 188.16317998 63.67498832 190.68141481 52.5 191 C51.53900391 191.03456299 50.57800781 191.06912598 49.58789062 191.10473633 C39.90016824 191.3930614 30.40520717 191.58066486 21.1875 188.25 C20.34445312 187.96898437 19.50140625 187.68796875 18.6328125 187.3984375 C15.41015625 186.32421875 15.41015625 186.32421875 12.1875 185.25 C12.1875 184.59 12.1875 183.93 12.1875 183.25 C11.61 182.981875 11.0325 182.71375 10.4375 182.4375 C8.11386635 181.2111378 6.14925354 180.00156566 4.1875 178.25 C4.1875 177.26 4.1875 176.27 4.1875 175.25 C3.5275 175.25 2.8675 175.25 2.1875 175.25 C1.78917969 174.14591797 1.78917969 174.14591797 1.3828125 173.01953125 C1.02960937 172.04371094 0.67640625 171.06789063 0.3125 170.0625 C-0.03554688 169.09957031 -0.38359375 168.13664063 -0.7421875 167.14453125 C-1.43021754 165.28383687 -2.14073309 163.43122076 -2.87890625 161.58984375 C-5.2835325 155.56318633 -6.2598273 149.66391211 -6.8125 143.25 C-7.4725 143.25 -8.1325 143.25 -8.8125 143.25 C-8.91796143 142.68079834 -9.02342285 142.11159668 -9.13208008 141.52514648 C-9.62136168 138.91095445 -10.12308287 136.29929424 -10.625 133.6875 C-10.79064453 132.79224609 -10.95628906 131.89699219 -11.12695312 130.97460938 C-11.90414757 126.97132477 -12.68970293 123.22100364 -14.37890625 119.49609375 C-15.82827111 116.21428938 -16.44711633 113.41467847 -16.9375 109.875 C-17.1737193 106.2483703 -17.1737193 106.2483703 -18.8125 103.25 C-19.13843123 100.90033216 -19.4227343 98.54484369 -19.6875 96.1875 C-20.27843717 91.28650075 -21.09555118 86.95329277 -23.0859375 82.4296875 C-24.51460499 78.14368502 -24.84252386 73.59813597 -25.3828125 69.12890625 C-25.50425345 66.35992059 -25.50425345 66.35992059 -26.8125 65.25 C-27.29256257 61.82955416 -27.68501628 58.40930505 -28.0625 54.9765625 C-28.17749662 51.3053489 -28.17749662 51.3053489 -29.8125 48.25 C-30.36243047 45.79324541 -30.8577156 43.34967763 -31.3125 40.875 C-31.4470459 40.15489746 -31.5815918 39.43479492 -31.72021484 38.69287109 C-32.64738673 33.57118731 -33.27177886 28.48708083 -33.6015625 23.2890625 C-33.69805444 21.18488787 -33.69805444 21.18488787 -34.8125 19.25 C-34.852492 17.25039988 -34.85596799 15.24952758 -34.8125 13.25 C-34.1525 13.25 -33.4925 13.25 -32.8125 13.25 C-32.44125 12.2909375 -32.44125 12.2909375 -32.0625 11.3125 C-30.8125 9.25 -30.8125 9.25 -28.6875 8.5 C-27.759375 8.37625 -27.759375 8.37625 -26.8125 8.25 C-26.8125 7.59 -26.8125 6.93 -26.8125 6.25 C-23.08284861 4.21564469 -21.14344958 3.25 -16.8125 3.25 C-16.8125 2.59 -16.8125 1.93 -16.8125 1.25 C-11.20029867 -0.01675945 -5.73062454 0.0277009 0 0 Z " fill="#EF5136" transform="translate(519.8125,163.75)"/>
<path d="M0 0 C0.495 0.495 0.495 0.495 1 1 C3.34723966 1.397493 5.70328548 1.74368723 8.0625 2.0625 C9.99802734 2.32740234 9.99802734 2.32740234 11.97265625 2.59765625 C13.47119141 2.79681641 13.47119141 2.79681641 15 3 C15 3.66 15 4.32 15 5 C15.72832031 4.96390625 16.45664063 4.9278125 17.20703125 4.890625 C20.14959508 5.00585827 21.99736241 5.59390781 24.6875 6.75 C25.54472656 7.1109375 26.40195313 7.471875 27.28515625 7.84375 C28.62900391 8.41609375 28.62900391 8.41609375 30 9 C31.87323718 9.75439212 33.74816964 10.5045922 35.625 11.25 C37.08333333 11.83333333 38.54166667 12.41666667 40 13 C40 13.66 40 14.32 40 15 C41.65 15.33 43.3 15.66 45 16 C45 16.66 45 17.32 45 18 C45.721875 18.2475 46.44375 18.495 47.1875 18.75 C53.26994109 21.45330715 57.7307277 26.24787829 61 32 C61 33.32 61 34.64 61 36 C61.66 36 62.32 36 63 36 C64.12276366 43.19633761 64.14108045 50.27994346 64.12939453 57.5534668 C64.13075171 58.91284736 64.13253342 60.27222755 64.13470459 61.63160706 C64.13924339 65.30545199 64.13750345 68.97926868 64.1343255 72.65311408 C64.13178091 76.51474056 64.13414551 80.37636475 64.13571167 84.23799133 C64.13752834 90.72661774 64.13514137 97.21523275 64.13037109 103.70385742 C64.12494092 111.17573677 64.12668409 118.64758877 64.1321975 126.11946744 C64.1367567 132.55884682 64.13736516 138.99821804 64.13475883 145.43759853 C64.13320996 149.27260428 64.13296356 153.10759725 64.13629532 156.94260216 C64.13921459 160.55499593 64.13712497 164.16735502 64.13140106 167.7797451 C64.1294781 169.71543711 64.13239343 171.65113209 64.13552856 173.58682251 C64.08556448 194.57111171 64.08556448 194.57111171 61 203 C60.71898437 203.77085937 60.43796875 204.54171875 60.1484375 205.3359375 C59.43229167 207.22395833 58.71614583 209.11197917 58 211 C57.34 211 56.68 211 56 211 C55.67 212.98 55.34 214.96 55 217 C54.34 217 53.68 217 53 217 C52.87625 217.598125 52.7525 218.19625 52.625 218.8125 C52 221 52 221 50 224 C49.34 224 48.68 224 48 224 C47.7525 224.5775 47.505 225.155 47.25 225.75 C45.81700012 228.32939979 44.21575324 230.06121592 42 232 C41.34 232 40.68 232 40 232 C39.67 232.99 39.34 233.98 39 235 C38.34 235 37.68 235 37 235 C37 235.66 37 236.32 37 237 C35.35 237.33 33.7 237.66 32 238 C32 238.66 32 239.32 32 240 C29.09451118 242.04169485 27.59857954 243 24 243 C24 243.66 24 244.32 24 245 C21.36 245.33 18.72 245.66 16 246 C16 246.66 16 247.32 16 248 C13.0059046 249.0183998 10.00409922 250.01155445 7 251 C5.906875 251.37125 4.81375 251.7425 3.6875 252.125 C-7.15111077 254.69687374 -18.57776451 254.15633255 -29.65332031 254.13037109 C-32.36268749 254.1250243 -35.07188793 254.13033801 -37.78125 254.13671875 C-71.80452292 254.15266591 -71.80452292 254.15266591 -83 247 C-85.31691454 246.27833809 -87.64848923 245.59940471 -90 245 C-90 244.34 -90 243.68 -90 243 C-91.1446875 242.5978125 -91.1446875 242.5978125 -92.3125 242.1875 C-94.88988618 241.04865495 -96.26954864 240.18583329 -98 238 C-98 237.34 -98 236.68 -98 236 C-98.66 236 -99.32 236 -100 236 C-106.60943715 225.24442146 -107.25619529 214.30651974 -105 202 C-103.4375 198.5 -103.4375 198.5 -102 196 C-101.34 196 -100.68 196 -100 196 C-100 195.34 -100 194.68 -100 194 C-99.34 194 -98.68 194 -98 194 C-97.814375 193.071875 -97.814375 193.071875 -97.625 192.125 C-97 190 -97 190 -95 188 C-90.03280323 188.19868787 -86.63188861 189.60030397 -82.375 191.88671875 C-78.44536846 193.72873354 -74.30563475 194.8523443 -70.1484375 196.0703125 C-67.07297291 196.97845217 -64.03642026 197.96962316 -61 199 C-61 199.66 -61 200.32 -61 201 C-47.47 201 -33.94 201 -20 201 C-20 200.34 -20 199.68 -20 199 C-18.68 199 -17.36 199 -16 199 C-16 198.34 -16 197.68 -16 197 C-14.02 196.67 -12.04 196.34 -10 196 C-10 195.34 -10 194.68 -10 194 C-9.21625 193.938125 -8.4325 193.87625 -7.625 193.8125 C-4.83146376 193.28626404 -4.83146376 193.28626404 -3.875 190.875 C-3.58625 189.92625 -3.2975 188.9775 -3 188 C-2.46375 186.88625 -1.9275 185.7725 -1.375 184.625 C0.07408978 180.8046724 0.24775172 178.04661147 0 174 C-0.89138672 174.30744141 -0.89138672 174.30744141 -1.80078125 174.62109375 C-7.52026439 176.48014814 -12.8439528 177.43540816 -18.84765625 177.7890625 C-20.97970704 177.76811816 -20.97970704 177.76811816 -22 179 C-23.70772358 179.08713831 -25.41898649 179.10700007 -27.12890625 179.09765625 C-28.68061523 179.09282227 -28.68061523 179.09282227 -30.26367188 179.08789062 C-31.35228516 179.07951172 -32.44089844 179.07113281 -33.5625 179.0625 C-35.2012207 179.05573242 -35.2012207 179.05573242 -36.87304688 179.04882812 C-39.58208495 179.03699826 -42.29101599 179.02051543 -45 179 C-45 178.34 -45 177.68 -45 177 C-45.73605469 177.01160156 -46.47210937 177.02320313 -47.23046875 177.03515625 C-48.20628906 177.04417969 -49.18210937 177.05320312 -50.1875 177.0625 C-51.15042969 177.07410156 -52.11335938 177.08570313 -53.10546875 177.09765625 C-55.85576513 177.00486622 -58.32479591 176.62111685 -61 176 C-61 175.34 -61 174.68 -61 174 C-61.99 174.061875 -62.98 174.12375 -64 174.1875 C-68.46888211 174.21491645 -71.91304608 172.7208227 -76 171 C-76 170.34 -76 169.68 -76 169 C-77.65 168.67 -79.3 168.34 -81 168 C-81 167.34 -81 166.68 -81 166 C-81.86625 165.814375 -81.86625 165.814375 -82.75 165.625 C-86.58426238 164.55992712 -89.42751537 163.08698156 -92 160 C-92 159.34 -92 158.68 -92 158 C-92.99 157.67 -93.98 157.34 -95 157 C-95 156.34 -95 155.68 -95 155 C-95.66 155 -96.32 155 -97 155 C-98.5078125 153.3203125 -98.5078125 153.3203125 -100.125 151.125 C-100.93324219 150.04605469 -100.93324219 150.04605469 -101.7578125 148.9453125 C-103 147 -103 147 -103 145 C-103.66 145 -104.32 145 -105 145 C-105.95312589 143.09374822 -106.90515463 141.18693977 -107.8515625 139.27734375 C-108.57534994 137.84207818 -109.31776187 136.41591253 -110.0859375 135.00390625 C-112.34481072 130.78337997 -113.64986155 126.87205897 -114.56640625 122.17578125 C-115.39346526 118.02558422 -116.66254224 114.01237328 -118 110 C-120.18309458 93.7480737 -119.57096749 76.98267976 -116 61 C-115.34 61 -114.68 61 -114 61 C-113.938125 59.72125 -113.87625 58.4425 -113.8125 57.125 C-113.21438219 51.42475605 -110.78983506 46.93111068 -108 42 C-107.34 42 -106.68 42 -106 42 C-105.505 39.03 -105.505 39.03 -105 36 C-104.34 36 -103.68 36 -103 36 C-102.731875 35.236875 -102.46375 34.47375 -102.1875 33.6875 C-101.04029271 31.09118877 -100.05353332 29.8749652 -98 28 C-97.67 27.34 -97.34 26.68 -97 26 C-96.34 26 -95.68 26 -95 26 C-95 25.34 -95 24.68 -95 24 C-93.6875 22.375 -93.6875 22.375 -92 21 C-91.01 21 -90.02 21 -89 21 C-89 20.34 -89 19.68 -89 19 C-86.5859375 17.08984375 -86.5859375 17.08984375 -83.375 14.9375 C-82.33085938 14.22464844 -81.28671875 13.51179687 -80.2109375 12.77734375 C-77.00665412 11.00368324 -74.61649247 10.35296098 -71 10 C-71 9.34 -71 8.68 -71 8 C-70.04738281 7.73445312 -69.09476563 7.46890625 -68.11328125 7.1953125 C-66.85902344 6.84210938 -65.60476563 6.48890625 -64.3125 6.125 C-63.07113281 5.77695313 -61.82976562 5.42890625 -60.55078125 5.0703125 C-57.11215587 4.09734229 -57.11215587 4.09734229 -54.33984375 2.90234375 C-51.9015433 1.96203089 -49.84657128 1.64226317 -47.25 1.4375 C-44.3275177 1.39963531 -44.3275177 1.39963531 -42 0 C-28.17642838 -1.63939868 -13.82357162 -1.63939868 0 0 Z M-33 55 C-34.051875 55.45375 -35.10375 55.9075 -36.1875 56.375 C-42.92833803 60.26970642 -46.02239033 63.93179065 -49 71 C-49.37125 71.845625 -49.7425 72.69125 -50.125 73.5625 C-52.26158807 79.51442391 -53.23739015 84.58745627 -53.125 90.9375 C-53.11597656 91.62134766 -53.10695313 92.30519531 -53.09765625 93.00976562 C-53.07438958 94.67333287 -53.03853167 96.33671631 -53 98 C-52.34 98 -51.68 98 -51 98 C-51.061875 98.969375 -51.12375 99.93875 -51.1875 100.9375 C-51.21625881 105.61559946 -49.64771207 109.67475582 -48 114 C-47.34 114 -46.68 114 -46 114 C-45.9175 114.5775 -45.835 115.155 -45.75 115.75 C-44.774018 118.67794601 -43.36488777 120.05244537 -41 122 C-40.01 122 -39.02 122 -38 122 C-38 122.66 -38 123.32 -38 124 C-36.02 124.33 -34.04 124.66 -32 125 C-32 125.66 -32 126.32 -32 127 C-22.13802078 129.227478 -11.86819118 128.78033115 -2.89361572 123.84062195 C-0.72548563 122.09642443 -0.72548563 122.09642443 -0.51898193 119.13362122 C-0.52786438 117.96780014 -0.53674683 116.80197906 -0.54589844 115.60083008 C-0.54531433 114.95665634 -0.54473022 114.3124826 -0.54412842 113.64878845 C-0.54691286 111.52181911 -0.57801786 109.39625538 -0.609375 107.26953125 C-0.61683621 105.79409043 -0.62252971 104.3186397 -0.62652588 102.84318542 C-0.64179199 98.96148271 -0.6810813 95.08037955 -0.7253418 91.19891357 C-0.76627398 87.23750927 -0.78453245 83.27600799 -0.8046875 79.31445312 C-0.8475754 71.54269554 -0.91583752 63.7714318 -1 56 C-2.59165266 55.33879477 -4.18581199 54.68362142 -5.78100586 54.03100586 C-6.66848007 53.66551132 -7.55595428 53.30001678 -8.47032166 52.92344666 C-16.48309051 49.99842474 -25.38712814 51.64229026 -33 55 Z " fill="#EF5136" transform="translate(1313,162)"/>
<path d="M0 0 C0 0.66 0 1.32 0 2 C0.58265625 1.96519531 1.1653125 1.93039063 1.765625 1.89453125 C12.06570857 1.55443415 21.37196758 4.63018865 31 8 C31 8.66 31 9.32 31 10 C31.7425 10.12375 32.485 10.2475 33.25 10.375 C35.80141485 10.95486701 37.7267573 11.73708739 40 13 C40 13.66 40 14.32 40 15 C40.721875 15.2475 41.44375 15.495 42.1875 15.75 C45.27606582 17.12269592 47.51011418 18.72353296 50 21 C50 21.66 50 22.32 50 23 C50.99 23.33 51.98 23.66 53 24 C53 24.66 53 25.32 53 26 C53.66 26 54.32 26 55 26 C58.6642613 29.85831875 60.60791281 33.64147506 61 39 C61.66 39 62.32 39 63 39 C63.46463869 40.31028111 63.92124581 41.62340989 64.375 42.9375 C64.63023437 43.66839844 64.88546875 44.39929688 65.1484375 45.15234375 C67.36952887 52.57975481 68.30070944 59.47694811 68.30639648 67.22631836 C68.31472 68.20643387 68.32304352 69.18654938 68.33161926 70.19636536 C68.35555973 73.41089946 68.36447047 76.62523018 68.37109375 79.83984375 C68.38007002 82.0898901 68.38919204 84.33993588 68.39845276 86.58998108 C68.41490039 91.29624884 68.42263555 96.0024458 68.42553711 100.70874023 C68.43092594 106.72196329 68.46864576 112.73451626 68.51428127 118.74755001 C68.54409996 123.39142765 68.55126167 128.03514454 68.55226326 132.67910957 C68.55645354 134.89537192 68.56883956 137.11163528 68.58978081 139.32780266 C68.61680315 142.43379305 68.61183767 145.53823705 68.59936523 148.64428711 C68.62161667 149.99981186 68.62161667 149.99981186 68.64431763 151.38272095 C68.56632767 158.24410735 66.45813305 163.12156582 63 169 C62.34 169 61.68 169 61 169 C60.731875 169.639375 60.46375 170.27875 60.1875 170.9375 C59 173 59 173 56 174 C56 174.66 56 175.32 56 176 C54.68 176.33 53.36 176.66 52 177 C52 177.66 52 178.32 52 179 C49.34191612 180.35320634 46.67570619 181.68245159 44 183 C43.34902344 183.33515625 42.69804688 183.6703125 42.02734375 184.015625 C36.3262584 186.78378205 30.46599757 188.26707583 24.3203125 189.69335938 C20.87337693 190.25754978 20.87337693 190.25754978 18 192 C16.1731498 192.21618196 14.33899638 192.37131246 12.50390625 192.5 C11.38822266 192.5825 10.27253906 192.665 9.12304688 192.75 C7.94806641 192.8325 6.77308594 192.915 5.5625 193 C3.25102885 193.16283341 0.93981094 193.32931575 -1.37109375 193.5 C-2.40161865 193.5721875 -3.43214355 193.644375 -4.49389648 193.71875 C-6.99441995 193.85359669 -6.99441995 193.85359669 -9 195 C-10.58236087 195.09572552 -12.1686539 195.13074047 -13.75390625 195.1328125 C-14.69041016 195.13410156 -15.62691406 195.13539063 -16.59179688 195.13671875 C-17.57212891 195.13285156 -18.55246094 195.12898437 -19.5625 195.125 C-20.54669922 195.12886719 -21.53089844 195.13273438 -22.54492188 195.13671875 C-23.48013672 195.13542969 -24.41535156 195.13414062 -25.37890625 195.1328125 C-26.2407251 195.13168457 -27.10254395 195.13055664 -27.99047852 195.12939453 C-30 195 -30 195 -31 194 C-32.54910427 193.7966824 -34.10610604 193.65277318 -35.6640625 193.53515625 C-36.62183594 193.45716797 -37.57960938 193.37917969 -38.56640625 193.29882812 C-40.58187139 193.14309934 -42.59749483 192.98940398 -44.61328125 192.83789062 C-50.02001069 192.39394689 -54.84827647 191.699939 -60 190 C-60.86625 189.75378906 -61.7325 189.50757813 -62.625 189.25390625 C-67.59635968 187.80665187 -72.28928074 186.15054575 -77 184 C-77 183.34 -77 182.68 -77 182 C-77.94875 181.690625 -78.8975 181.38125 -79.875 181.0625 C-83 180 -83 180 -85 179 C-85 178.34 -85 177.68 -85 177 C-85.5775 176.9175 -86.155 176.835 -86.75 176.75 C-89.67794601 175.774018 -91.05244537 174.36488777 -93 172 C-93 171.01 -93 170.02 -93 169 C-93.5775 168.79375 -94.155 168.5875 -94.75 168.375 C-97.863127 166.4725335 -99.20739939 164.13705107 -101 161 C-101 160.01 -101 159.02 -101 158 C-101.66 158 -102.32 158 -103 158 C-104.0403378 154.67785462 -105.03304938 151.34423408 -106 148 C-106.21269531 147.28199219 -106.42539063 146.56398438 -106.64453125 145.82421875 C-110.1901092 132.27960084 -107.66537034 118.87642213 -103 106 C-102.34 106 -101.68 106 -101 106 C-100.67 104.02 -100.34 102.04 -100 100 C-99.34 100 -98.68 100 -98 100 C-97.75894531 99.26007813 -97.51789063 98.52015625 -97.26953125 97.7578125 C-95.8276066 94.62550849 -94.29311643 93.10838551 -91.6875 90.875 C-90.92824219 90.21242188 -90.16898438 89.54984375 -89.38671875 88.8671875 C-83.16527197 84 -83.16527197 84 -79 84 C-79 83.34 -79 82.68 -79 82 C-69.73598005 78.18540355 -60.0821971 75.40692958 -50 76 C-50 75.34 -50 74.68 -50 74 C-48.92878906 73.93941406 -47.85757812 73.87882812 -46.75390625 73.81640625 C-45.35675609 73.73201463 -43.95962143 73.64736594 -42.5625 73.5625 C-41.85544922 73.52318359 -41.14839844 73.48386719 -40.41992188 73.44335938 C-36.91309581 73.52375562 -36.91309581 73.52375562 -34 72 C-23.87255664 70.22055767 -13.23972926 70.90973794 -3 71 C-3 70.34 -3 69.68 -3 69 C-1.02 69 0.96 69 3 69 C3 67.02 3 65.04 3 63 C2.34 63 1.68 63 1 63 C0.938125 62.21625 0.87625 61.4325 0.8125 60.625 C0.27965196 57.80870146 0.27965196 57.80870146 -2.25 56.8125 C-3.1575 56.544375 -4.065 56.27625 -5 56 C-6.66666667 55.33333333 -8.33333333 54.66666667 -10 54 C-10 53.34 -10 52.68 -10 52 C-15.56843749 51.97518351 -21.13684241 51.95708493 -26.70532227 51.94506836 C-28.59758058 51.94005597 -30.48983505 51.93324433 -32.38208008 51.92456055 C-35.11019848 51.91235902 -37.83826543 51.90674062 -40.56640625 51.90234375 C-41.82463951 51.89460182 -41.82463951 51.89460182 -43.10829163 51.88670349 C-49.39277195 51.88611037 -55.42517955 52.23766217 -61.375 54.4375 C-65.19717687 55.78342895 -68.97940788 56.71190861 -72.95703125 57.47265625 C-75.06012803 57.9375704 -75.06012803 57.9375704 -77.06640625 59.046875 C-79.77524198 60.38213948 -82.02387612 60.19409504 -85 60 C-85.66 59.67 -86.32 59.34 -87 59 C-87 58.34 -87 57.68 -87 57 C-87.66 57 -88.32 57 -89 57 C-91.36503039 54.00893216 -92.91553181 51.97138418 -93.25 48.125 C-93.1675 47.42375 -93.085 46.7225 -93 46 C-93.66 46 -94.32 46 -95 46 C-97.33207033 37.69199943 -97.33207033 31.30800057 -95 23 C-94.34 23 -93.68 23 -93 23 C-92.9071875 21.9171875 -92.9071875 21.9171875 -92.8125 20.8125 C-91.7446249 17.11600926 -89.89180184 15.46861132 -87 13 C-86.34 13 -85.68 13 -85 13 C-85 12.34 -85 11.68 -85 11 C-83.35 10.67 -81.7 10.34 -80 10 C-80 9.34 -80 8.68 -80 8 C-75.33333333 6.66666667 -70.66666667 5.33333333 -66 4 C-64.824375 3.62875 -63.64875 3.2575 -62.4375 2.875 C-58.98410762 1.99595467 -56.1131952 1.7952091 -52.5625 1.875 C-51.51191406 1.89304688 -50.46132812 1.91109375 -49.37890625 1.9296875 C-48.59386719 1.95289063 -47.80882812 1.97609375 -47 2 C-47 1.34 -47 0.68 -47 0 C-31.23419079 -1.06886842 -15.76293612 -1.14639535 0 0 Z M-21.4375 116.3125 C-22.84805664 116.48942383 -22.84805664 116.48942383 -24.28710938 116.66992188 C-29.40658817 117.37344433 -33.48611304 118.30975351 -38 121 C-38 121.66 -38 122.32 -38 123 C-38.99 123 -39.98 123 -41 123 C-41 124.32 -41 125.64 -41 127 C-41.66 127 -42.32 127 -43 127 C-43.50338797 132.28557366 -42.34676996 134.90950339 -39 139 C-36.89960669 140.38868516 -36.89960669 140.38868516 -35 141 C-35 141.66 -35 142.32 -35 143 C-23.64324373 144.85356385 -7.51952563 146.25976281 3 141 C3 132.42 3 123.84 3 115 C-5.45346365 115 -13.17275323 115.14015413 -21.4375 116.3125 Z " fill="#EF5136" transform="translate(1510,162)"/>
<path d="M0 0 C0.70060547 0.03915527 1.40121094 0.07831055 2.12304688 0.11865234 C7.06516075 0.44016075 7.06516075 0.44016075 8.1875 1.5625 C11.24661104 2.01137079 14.30484038 2.37993331 17.37695312 2.72460938 C21.53361899 3.22931806 25.26386564 4.10410403 29.1875 5.5625 C29.1875 6.2225 29.1875 6.8825 29.1875 7.5625 C32.1575 7.8925 35.1275 8.2225 38.1875 8.5625 C38.1875 9.2225 38.1875 9.8825 38.1875 10.5625 C38.89261719 10.65660156 39.59773437 10.75070313 40.32421875 10.84765625 C43.71193697 11.69343037 46.06890234 13.11263993 49 15 C49.97582031 15.61746094 50.95164062 16.23492187 51.95703125 16.87109375 C53.06111328 17.70833984 53.06111328 17.70833984 54.1875 18.5625 C54.1875 19.2225 54.1875 19.8825 54.1875 20.5625 C55.1775 20.8925 56.1675 21.2225 57.1875 21.5625 C57.1875 22.2225 57.1875 22.8825 57.1875 23.5625 C57.75339844 23.75714844 58.31929687 23.95179688 58.90234375 24.15234375 C62.12818544 26.14299136 63.78838108 28.97338448 65.75 32.125 C66.14695068 32.75905762 66.54390137 33.39311523 66.95288086 34.04638672 C72.42257247 42.9988626 73.66826081 50.03918009 73.1875 60.5625 C73.8475 60.5625 74.5075 60.5625 75.1875 60.5625 C75.1875 92.9025 75.1875 125.2425 75.1875 158.5625 C74.5275 158.5625 73.8675 158.5625 73.1875 158.5625 C73.2184375 159.985625 73.2184375 159.985625 73.25 161.4375 C73.1875 164.5625 73.1875 164.5625 72.1875 166.5625 C71.5275 166.5625 70.8675 166.5625 70.1875 166.5625 C70.10371094 167.14515625 70.01992188 167.7278125 69.93359375 168.328125 C68.97023304 171.21316337 67.55770296 172.35950726 65.25 174.3125 C64.53972656 174.92609375 63.82945312 175.5396875 63.09765625 176.171875 C61.1875 177.5625 61.1875 177.5625 59.1875 177.5625 C59.1875 178.2225 59.1875 178.8825 59.1875 179.5625 C53.83743984 182.85017869 49.50381828 185.15933075 43.1875 185.5625 C43.1875 186.2225 43.1875 186.8825 43.1875 187.5625 C41.97191406 187.83964844 40.75632812 188.11679687 39.50390625 188.40234375 C37.91922693 188.76803898 36.33459388 189.13393475 34.75 189.5 C33.94755859 189.68240234 33.14511719 189.86480469 32.31835938 190.05273438 C28.43797271 190.65911008 28.43797271 190.65911008 25.1875 192.5625 C23.3606498 192.77868196 21.52649638 192.93381246 19.69140625 193.0625 C18.57572266 193.145 17.46003906 193.2275 16.31054688 193.3125 C15.13556641 193.395 13.96058594 193.4775 12.75 193.5625 C10.43852885 193.72533341 8.12731094 193.89181575 5.81640625 194.0625 C4.78588135 194.1346875 3.75535645 194.206875 2.69360352 194.28125 C0.19308005 194.41609669 0.19308005 194.41609669 -1.8125 195.5625 C-3.31011762 195.65790112 -4.81184828 195.69323486 -6.3125 195.6953125 C-7.6428125 195.69724609 -7.6428125 195.69724609 -9 195.69921875 C-9.928125 195.69535156 -10.85625 195.69148437 -11.8125 195.6875 C-12.740625 195.69136719 -13.66875 195.69523438 -14.625 195.69921875 C-15.511875 195.69792969 -16.39875 195.69664062 -17.3125 195.6953125 C-18.1271875 195.69418457 -18.941875 195.69305664 -19.78125 195.69189453 C-21.8125 195.5625 -21.8125 195.5625 -23.8125 194.5625 C-25.40686405 194.36582799 -27.00747325 194.21843456 -28.609375 194.09765625 C-29.5684375 194.01966797 -30.5275 193.94167969 -31.515625 193.86132812 C-33.53104405 193.70500396 -35.54666943 193.55131544 -37.5625 193.40039062 C-42.62379908 192.9842544 -47.04089982 192.41458777 -51.8125 190.5625 C-53.6216831 190.07095808 -55.43419103 189.59147052 -57.25 189.125 C-61.65830567 187.944634 -65.68091747 186.49057185 -69.8125 184.5625 C-69.8125 183.9025 -69.8125 183.2425 -69.8125 182.5625 C-70.76125 182.253125 -71.71 181.94375 -72.6875 181.625 C-75.8125 180.5625 -75.8125 180.5625 -77.8125 179.5625 C-77.8125 178.9025 -77.8125 178.2425 -77.8125 177.5625 C-78.8025 177.2325 -79.7925 176.9025 -80.8125 176.5625 C-80.8125 175.9025 -80.8125 175.2425 -80.8125 174.5625 C-82.4625 173.9025 -84.1125 173.2425 -85.8125 172.5625 C-85.8125 171.5725 -85.8125 170.5825 -85.8125 169.5625 C-86.8025 169.2325 -87.7925 168.9025 -88.8125 168.5625 C-88.8125 167.9025 -88.8125 167.2425 -88.8125 166.5625 C-89.4725 166.5625 -90.1325 166.5625 -90.8125 166.5625 C-98.05361251 153.76531374 -101.96202588 141.47960333 -100.8125 126.5625 C-100.3175 125.5725 -100.3175 125.5725 -99.8125 124.5625 C-99.65824643 123.21135301 -99.53795985 121.85620801 -99.4375 120.5 C-98.94914013 115.56836589 -97.54972764 111.18418108 -95.8125 106.5625 C-95.1525 106.5625 -94.4925 106.5625 -93.8125 106.5625 C-93.4825 104.5825 -93.1525 102.6025 -92.8125 100.5625 C-92.1525 100.5625 -91.4925 100.5625 -90.8125 100.5625 C-90.544375 99.799375 -90.27625 99.03625 -90 98.25 C-88.86115495 95.67261382 -87.99833329 94.29295136 -85.8125 92.5625 C-85.1525 92.5625 -84.4925 92.5625 -83.8125 92.5625 C-83.8125 91.9025 -83.8125 91.2425 -83.8125 90.5625 C-80.29391867 87.30755877 -76.65840538 85.00303685 -71.8125 84.5625 C-71.8125 83.9025 -71.8125 83.2425 -71.8125 82.5625 C-63.56295988 79.16563054 -54.93387252 76.95866518 -46.0625 75.9375 C-42.96390868 75.92104025 -42.96390868 75.92104025 -41.8125 74.5625 C-38.19077258 74.23654453 -34.5679479 74.04869464 -30.9375 73.84375 C-27.9475199 73.91114552 -27.9475199 73.91114552 -26.8125 72.5625 C-16.68505664 70.78305767 -6.05222926 71.47223794 4.1875 71.5625 C4.1875 70.9025 4.1875 70.2425 4.1875 69.5625 C6.1675 69.5625 8.1475 69.5625 10.1875 69.5625 C9.02373191 64.61648564 7.93074207 61.20457337 4.1875 57.5625 C1.88853262 56.33144005 -0.35086544 55.4619434 -2.8125 54.5625 C-2.8125 53.9025 -2.8125 53.2425 -2.8125 52.5625 C-8.38093749 52.53768351 -13.94934241 52.51958493 -19.51782227 52.50756836 C-21.41008058 52.50255597 -23.30233505 52.49574433 -25.19458008 52.48706055 C-27.92269848 52.47485902 -30.65076543 52.46924062 -33.37890625 52.46484375 C-34.63713951 52.45710182 -34.63713951 52.45710182 -35.92079163 52.44920349 C-42.08747486 52.44862149 -48.08462302 52.75422069 -53.9375 54.875 C-57.77991269 56.20633339 -61.62763111 57.50767005 -65.5 58.75 C-66.55574219 59.09417969 -67.61148438 59.43835938 -68.69921875 59.79296875 C-71.90481826 60.58531894 -74.52525984 60.82177528 -77.8125 60.5625 C-81.59972316 58.18447616 -83.93229608 55.61978215 -85.8125 51.5625 C-86 48.75 -86 48.75 -85.8125 46.5625 C-86.4725 46.5625 -87.1325 46.5625 -87.8125 46.5625 C-89.14922837 38.87631187 -89.42816789 31.23692249 -87.8125 23.5625 C-87.1525 23.5625 -86.4925 23.5625 -85.8125 23.5625 C-85.7196875 22.4796875 -85.7196875 22.4796875 -85.625 21.375 C-84.5571249 17.67850926 -82.70430184 16.03111132 -79.8125 13.5625 C-79.1525 13.5625 -78.4925 13.5625 -77.8125 13.5625 C-77.8125 12.9025 -77.8125 12.2425 -77.8125 11.5625 C-76.1625 11.2325 -74.5125 10.9025 -72.8125 10.5625 C-72.8125 9.9025 -72.8125 9.2425 -72.8125 8.5625 C-68.14583333 7.22916667 -63.47916667 5.89583333 -58.8125 4.5625 C-57.63558594 4.20027344 -56.45867188 3.83804688 -55.24609375 3.46484375 C-51.90822067 2.58765526 -48.87547128 2.20350712 -45.4375 2 C-41.80948358 2.08085643 -41.80948358 2.08085643 -38.8125 0.5625 C-36.40994761 0.31771164 -34.03441629 0.13465689 -31.625 0 C-30.90248047 -0.0417334 -30.17996094 -0.0834668 -29.43554688 -0.12646484 C-19.60143865 -0.65436943 -9.82904227 -0.5677346 0 0 Z M-14.0625 116.75 C-15.43535156 116.90178711 -15.43535156 116.90178711 -16.8359375 117.05664062 C-23.15654912 117.88948475 -28.74873887 119.53488573 -33.8125 123.5625 C-35.93072905 126.99891668 -36.29646092 129.52949237 -35.8125 133.5625 C-33.67118563 137.38627566 -31.29605385 140.87518703 -27.8125 143.5625 C-16.42440149 145.71890974 -4.2768464 144.77841553 7.1875 143.5625 C7.1875 142.9025 7.1875 142.2425 7.1875 141.5625 C8.1775 141.5625 9.1675 141.5625 10.1875 141.5625 C10.1875 132.9825 10.1875 124.4025 10.1875 115.5625 C1.84097825 115.5625 -5.88021168 115.65394849 -14.0625 116.75 Z " fill="#EF5136" transform="translate(875.8125,161.4375)"/>
<path d="M0 0 C0.495 0.495 0.495 0.495 1 1 C4.45532858 1.50342536 7.91832312 1.90181156 11.38671875 2.3046875 C15.08106089 3.01559874 17.70104366 4.23842137 21 6 C23.65094209 6.82897353 26.28456012 7.39136692 29 8 C29 8.66 29 9.32 29 10 C29.66 10.061875 30.32 10.12375 31 10.1875 C35.1216675 11.30378495 38.65750502 13.33761566 42 16 C42 16.66 42 17.32 42 18 C42.556875 18.226875 43.11375 18.45375 43.6875 18.6875 C46.65253447 20.3703574 48.65353689 22.53621374 51 25 C51.763125 25.721875 52.52625 26.44375 53.3125 27.1875 C55 29 55 29 55 31 C55.66 31 56.32 31 57 31 C57.33 32.98 57.66 34.96 58 37 C58.66 37 59.32 37 60 37 C60.71614583 38.69270833 61.43229167 40.38541667 62.1484375 42.078125 C62.97307499 44.0136713 62.97307499 44.0136713 64.0146656 45.84298038 C67.37752874 53.20470628 66.14297634 63.1485713 66.12939453 71.05297852 C66.13202301 72.95470573 66.13202301 72.95470573 66.13470459 74.89485168 C66.13922555 78.34050766 66.13751265 81.78613338 66.1343255 85.23178983 C66.13177908 88.84544021 66.13414531 92.45908815 66.13571167 96.07273865 C66.13752463 102.12898216 66.13514785 108.18521343 66.13037109 114.24145508 C66.12490799 121.24896103 66.12670941 128.25643798 66.1321975 135.26394325 C66.13672722 141.2887416 66.13738054 147.31353119 66.13475883 153.33833069 C66.13319812 156.9337095 66.13299714 160.52907465 66.13629532 164.12445259 C66.13970589 168.12017077 66.13498679 172.11585603 66.12939453 176.11157227 C66.13141876 177.30786255 66.13344299 178.50415283 66.13552856 179.73669434 C66.13270874 180.81745743 66.12988892 181.89822052 66.12698364 183.01173401 C66.1264181 184.4288661 66.1264181 184.4288661 66.12584114 185.87462711 C66 188 66 188 65 189 C63.67331468 189.21321728 62.33740381 189.36997463 61 189.5 C60.195625 189.5825 59.39125 189.665 58.5625 189.75 C56.85416667 189.91666667 55.14583333 190.08333333 53.4375 190.25 C52.633125 190.3325 51.82875 190.415 51 190.5 C50.2575 190.5721875 49.515 190.644375 48.75 190.71875 C46.97616999 190.8285148 46.97616999 190.8285148 46 192 C44.66956375 192.0983721 43.33406656 192.13078592 42 192.1328125 C41.195625 192.13410156 40.39125 192.13539063 39.5625 192.13671875 C38.716875 192.13285156 37.87125 192.12898437 37 192.125 C36.154375 192.12886719 35.30875 192.13273438 34.4375 192.13671875 C33.633125 192.13542969 32.82875 192.13414062 32 192.1328125 C31.2575 192.13168457 30.515 192.13055664 29.75 192.12939453 C28 192 28 192 27 191 C24.98115353 190.75394382 22.95979077 190.52842772 20.9375 190.3125 C14.79934251 189.41439775 10.10622472 187.82135374 6 183 C5.296875 180.8046875 5.296875 180.8046875 5 179 C4.34 179 3.68 179 3 179 C-0.04302243 172.10248249 -0.14288976 165.49001505 -0.12597656 158.08251953 C-0.1278447 157.09962952 -0.12971283 156.1167395 -0.13163757 155.10406494 C-0.13563131 152.97609849 -0.13771547 150.84812778 -0.13809967 148.72015762 C-0.14152712 144.19061682 -0.16290185 139.66121804 -0.18333054 135.13172722 C-0.22129659 126.70547423 -0.25261357 118.27937575 -0.25048828 109.85302734 C-0.24970058 103.98444829 -0.27308654 98.1163936 -0.3123703 92.24795151 C-0.32281908 90.016136 -0.32436266 87.78425989 -0.31671906 85.55243301 C-0.30707937 82.42646917 -0.32831337 79.30209038 -0.35644531 76.17626953 C-0.34624863 75.26068268 -0.33605194 74.34509583 -0.32554626 73.40176392 C-0.4267216 67.11174203 -1.95455336 62.86798232 -6 58 C-8.33790071 56.04664818 -8.33790071 56.04664818 -11 55 C-11.86625 54.608125 -12.7325 54.21625 -13.625 53.8125 C-18.3946816 52.66424332 -23.11370481 52.64206015 -28 53 C-28.33 53.33 -28.66 53.66 -29 54 C-31.11682557 54.49967986 -33.24630716 54.89808614 -35.3828125 55.3046875 C-38.7480893 56.19874611 -41.81266915 57.6085456 -45 59 C-45.00238835 59.6456831 -45.00477671 60.2913662 -45.00723743 60.95661545 C-45.06636027 76.66380417 -45.14189271 92.37081514 -45.23571491 108.07783127 C-45.28069038 115.6736182 -45.32010094 123.26935806 -45.34643555 130.86523438 C-45.36940153 137.4854097 -45.4027837 144.10543628 -45.44870156 150.72549367 C-45.4726529 154.23114945 -45.49136905 157.73665774 -45.49761391 161.24239349 C-45.50477848 165.15492426 -45.53519687 169.06708515 -45.56762695 172.97949219 C-45.56547432 174.72521011 -45.56547432 174.72521011 -45.5632782 176.50619507 C-45.57581635 177.57187714 -45.58835449 178.6375592 -45.60127258 179.73553467 C-45.60588155 180.66101482 -45.61049051 181.58649498 -45.61523914 182.54001999 C-46.07331468 185.46873961 -46.99050293 186.8507373 -49 189 C-50.97705078 189.62182617 -50.97705078 189.62182617 -53.1953125 189.79296875 C-53.99324219 189.86580078 -54.79117187 189.93863281 -55.61328125 190.01367188 C-56.44214844 190.07103516 -57.27101563 190.12839844 -58.125 190.1875 C-63.49205848 190.14538554 -63.49205848 190.14538554 -68 192 C-70.84335048 192.09986975 -73.65697163 192.13877881 -76.5 192.125 C-77.29792969 192.12886719 -78.09585938 192.13273438 -78.91796875 192.13671875 C-84.87339233 192.12660767 -84.87339233 192.12660767 -86 191 C-89.25843529 190.45919972 -92.52682882 190.03393882 -95.80078125 189.59765625 C-101.38807645 188.55387583 -104.27239967 186.28674037 -108 182 C-111.28282982 176.94295471 -112.50047305 173.00567663 -112 167 C-112.66 167 -113.32 167 -114 167 C-114.07019968 150.98786637 -114.1230417 134.97578295 -114.15543652 118.96353245 C-114.17088034 111.52812608 -114.19192208 104.09281555 -114.22631836 96.6574707 C-114.2562971 90.17394075 -114.27559305 83.69048023 -114.28226548 77.20688289 C-114.28616347 73.77645609 -114.29527178 70.34622787 -114.31719017 66.91586494 C-114.33901801 63.07863799 -114.34196459 59.24182023 -114.34057617 55.40454102 C-114.351362 54.27740692 -114.36214783 53.15027283 -114.3732605 51.98898315 C-114.34769495 45.44429735 -113.54373912 40.0512347 -111 34 C-110.34 34 -109.68 34 -109 34 C-108.86851562 32.89011719 -108.86851562 32.89011719 -108.734375 31.7578125 C-107.22861635 26.10320821 -101.77973015 22.23807315 -97.125 19 C-95 18 -95 18 -93 18 C-93 17.34 -93 16.68 -93 16 C-90.89915791 14.99303432 -88.79420511 13.9946411 -86.6875 13 C-85.51574219 12.443125 -84.34398437 11.88625 -83.13671875 11.3125 C-80 10 -80 10 -77 10 C-77 9.34 -77 8.68 -77 8 C-73.7 7.67 -70.4 7.34 -67 7 C-67 6.34 -67 5.68 -67 5 C-65.02 5 -63.04 5 -61 5 C-61 4.34 -61 3.68 -61 3 C-59.39318359 2.80083984 -59.39318359 2.80083984 -57.75390625 2.59765625 C-56.35674231 2.4194944 -54.95960841 2.24109681 -53.5625 2.0625 C-52.85544922 1.97548828 -52.14839844 1.88847656 -51.41992188 1.79882812 C-47.91182032 1.61783809 -47.91182032 1.61783809 -45 0 C-30.15251387 -1.64746079 -14.84748613 -1.64746079 0 0 Z " fill="#EF5136" transform="translate(1101,162)"/>
<path d="M0 0 C0.66 0.33 1.32 0.66 2 1 C0.92807816 2.3218362 -0.15802695 3.63217927 -1.25 4.9375 C-1.85328125 5.66839844 -2.4565625 6.39929688 -3.078125 7.15234375 C-5.10741134 9.10326334 -6.254407 9.61731779 -9 10 C-8.34 9.01 -7.68 8.02 -7 7 C-6.34 7 -5.68 7 -5 7 C-4.67 6.01 -4.34 5.02 -4 4 C-2.70644173 2.62804426 -1.37701298 1.28817344 0 0 Z " fill="#F13320" transform="translate(134,79)"/>
<path d="M0 0 C0 3 0 3 -1.53125 4.60546875 C-2.1809375 5.12753906 -2.830625 5.64960938 -3.5 6.1875 C-4.1496875 6.71730469 -4.799375 7.24710937 -5.46875 7.79296875 C-5.9740625 8.19128906 -6.479375 8.58960938 -7 9 C-7 8.01 -7 7.02 -7 6 C-5.68 5.34 -4.36 4.68 -3 4 C-3 3.34 -3 2.68 -3 2 C-2.01 1.34 -1.02 0.68 0 0 Z " fill="#E74025" transform="translate(795,250)"/>
</svg>
